# xmcd
#
# Track frame offsets:
#	225
#	11244
#	27018
#	39445
#	53052
#	64241
#	78918
#	93597
#	109812
#	120190
#	136085
#	151590
#	166729
#	180839
#	192507
#	207433
#
# Disc length: 2941 seconds
#
# Revision: 1
# Processed by: cddbd v1.5.2PL0 Copyright (c) Steve Scherf et al.
# Submitted via: audiograbber 1.83.01
#
DISCID=c00b7a10
DTITLE=Various Artist - Südtirol mein Heimatland
DYEAR=2002
DGENRE=Country
TTITLE0=Orig. Südtiroler Spitzbuam - Servus, hallo - ein Gruß aus Südtirol
TTITLE1=Kastelruther Buam - Ein Bild von Südtirol
TTITLE2=Die zwoa Solt'n Buam - Bei uns dahoam
TTITLE3=Die Vaiolets - Alpenrose aus Südtirol
TTITLE4=Orig. Schlern Sextett - Urlaub in Südtirol
TTITLE5=Die Vaiolets - Das Herz der Dolomiten
TTITLE6=Hauff and Henkler - Dolomitenfahrt
TTITLE7=Die Vaiolets - Im schönen Südtirol
TTITLE8=Orig. Pseirer Spatzen - Gruss aus Passeier
TTITLE9=Die Vaiolets - Die Liebe am Kalterersee
TTITLE10=Eisacktaler Nachtexpress - Schürzenjagd in Südtirol
TTITLE11=Die Vaiolets - Rosen aus Südtirol
TTITLE12=Ensemble Sonnwend - Südtiroler Kirchtagstanz
TTITLE13=Orig. Südtiroler Spitzbuam - Südtiroler Boarischer
TTITLE14=Die Vaiolets - Südtirol, es soll Dich grüssen
TTITLE15=Orig. Schlern Sextett - Gruss aus Südtirol
EXTD=
EXTT0=
EXTT1=
EXTT2=
EXTT3=
EXTT4=
EXTT5=
EXTT6=
EXTT7=
EXTT8=
EXTT9=
EXTT10=
EXTT11=
EXTT12=
EXTT13=
EXTT14=
EXTT15=
PLAYORDER=
